<?xml version="1.0" standalone="no"?>
<!DOCTYPE svg PUBLIC "-//W3C//DTD SVG 20010904//EN"
 "http://www.w3.org/TR/2001/REC-SVG-20010904/DTD/svg10.dtd">
<svg version="1.0" xmlns="http://www.w3.org/2000/svg"
 width="500.000000pt" height="500.000000pt" viewBox="0 0 500.000000 500.000000"
 preserveAspectRatio="xMidYMid meet">

<g transform="translate(0.000000,500.000000) scale(0.100000,-0.100000)"
fill="#000000" stroke="none">
<path d="M2422 3137 l-82 -82 173 -173 173 -173 162 3 162 3 -253 253 -252
252 -83 -83z"/>
<path d="M3068 3028 c-2 -35 -7 -43 -23 -44 -59 -2 -65 -5 -65 -23 0 -16 8
-20 43 -23 42 -3 42 -3 45 -45 3 -38 6 -43 28 -43 22 0 24 4 24 45 l0 45 46 0
c41 0 45 2 42 22 -3 20 -8 22 -45 20 l-43 -4 0 46 c0 42 -2 46 -24 46 -22 0
-25 -5 -28 -42z"/>
<path d="M2115 2830 l-120 -120 245 0 245 0 -120 120 c-66 66 -122 120 -125
120 -3 0 -59 -54 -125 -120z"/>
<path d="M3533 2575 c-32 -14 -63 -59 -63 -93 0 -32 36 -68 82 -81 108 -33
120 -42 92 -72 -22 -24 -47 -24 -103 1 -46 21 -55 20 -71 -10 -24 -46 140 -81
209 -45 33 17 41 33 41 83 0 49 -22 69 -101 92 -70 21 -88 39 -63 65 20 19 45
19 92 0 34 -15 38 -15 49 1 22 30 15 41 -34 58 -56 19 -88 20 -130 1z"/>
<path d="M1454 2421 l-1 -161 94 0 c75 0 102 4 134 20 103 53 115 196 22 268
-33 25 -45 27 -142 30 l-106 4 -1 -161z m213 67 c37 -37 37 -98 1 -135 -22
-22 -39 -27 -88 -31 l-60 -4 0 102 0 102 60 -4 c49 -3 66 -10 87 -30z"/>
<path d="M1830 2420 l0 -160 130 0 130 0 0 30 0 30 -95 0 -95 0 0 35 0 35 85
0 85 0 0 30 0 30 -85 0 -85 0 0 35 0 35 90 0 90 0 0 30 0 30 -125 0 -125 0 0
-160z"/>
<path d="M2145 2543 c111 -268 119 -283 151 -283 30 0 32 3 94 148 35 81 68
153 74 160 8 11 1 13 -35 10 l-44 -3 -39 -102 c-22 -57 -43 -103 -47 -103 -3
0 -26 47 -49 105 l-43 105 -39 0 -38 0 15 -37z"/>
<path d="M2520 2443 c0 -76 -3 -148 -6 -160 -6 -21 -3 -23 35 -23 l41 0 0 45
0 45 45 0 c95 0 145 42 145 120 0 83 -44 110 -176 110 l-84 0 0 -137z m171 67
c27 -15 25 -64 -3 -84 -12 -9 -39 -16 -60 -16 l-38 0 0 55 0 55 41 0 c22 0 49
-5 60 -10z"/>
<path d="M2840 2420 l0 -160 120 0 120 0 0 30 0 30 -85 0 -85 0 0 130 0 130
-35 0 -35 0 0 -160z"/>
<path d="M3120 2475 c0 -120 12 -161 58 -194 42 -30 138 -30 176 0 47 37 56
68 56 189 l0 110 -34 0 -34 0 -4 -116 c-3 -128 -11 -144 -72 -144 -62 0 -76
30 -76 159 l0 101 -35 0 -35 0 0 -105z"/>
<path d="M2119 2123 c5 -10 62 -70 126 -133 l116 -115 -3 130 -3 130 -123 3
c-115 2 -122 2 -113 -15z"/>
<path d="M2500 1933 l0 -208 200 200 c110 110 200 203 200 207 0 5 -90 8 -200
8 l-200 0 0 -207z"/>
</g>
</svg>
