<?xml version="1.0" standalone="no"?>
<!DOCTYPE svg PUBLIC "-//W3C//DTD SVG 20010904//EN"
 "http://www.w3.org/TR/2001/REC-SVG-20010904/DTD/svg10.dtd">
<svg version="1.0" xmlns="http://www.w3.org/2000/svg"
 width="500.000000pt" height="500.000000pt" viewBox="0 0 500.000000 500.000000"
 preserveAspectRatio="xMidYMid meet">

<g transform="translate(0.000000,500.000000) scale(0.100000,-0.100000)"
fill="#000000" stroke="none">
<path d="M1691 3108 c-12 -4 -26 -19 -31 -33 -6 -16 -10 -218 -10 -515 l0
-489 23 -26 22 -27 182 2 c259 1 352 31 479 155 57 56 71 80 202 345 77 157
154 301 170 320 17 20 56 49 88 65 51 25 70 29 144 28 71 0 93 -4 135 -26 94
-47 135 -114 135 -214 -1 -149 -125 -253 -289 -241 -39 3 -83 14 -107 26 -47
24 -102 82 -116 124 -5 15 -13 28 -17 28 -3 0 -42 -71 -85 -157 l-78 -158 4
-217 c3 -213 3 -217 27 -242 34 -36 101 -37 136 -1 l25 24 0 221 c0 121 2 220
4 220 2 0 24 -8 48 -18 84 -36 170 -47 256 -33 155 26 274 107 333 226 118
241 7 511 -247 602 -69 24 -260 24 -329 -1 -95 -34 -187 -101 -237 -174 -18
-26 -92 -166 -164 -312 -93 -186 -144 -277 -171 -304 -68 -69 -178 -106 -320
-106 l-63 0 -2 335 c-1 184 -2 350 -2 368 l-1 32 64 3 c86 4 181 -12 237 -40
84 -41 158 -134 183 -227 6 -21 14 -10 56 75 26 54 52 107 57 117 8 15 -5 32
-64 91 -40 41 -97 85 -127 101 -105 53 -133 58 -337 60 -105 1 -201 -2 -213
-7z"/>
<path d="M1660 1279 l0 -142 73 5 c87 6 124 22 154 67 28 41 30 93 5 141 -24
50 -71 70 -159 70 l-73 0 0 -141z m177 67 c29 -34 31 -94 5 -126 -14 -18 -32
-24 -75 -28 l-57 -4 0 97 0 98 52 -5 c40 -4 57 -11 75 -32z"/>
<path d="M1970 1280 l0 -141 98 3 c89 3 97 5 97 23 0 18 -7 20 -75 21 l-75 1
-3 37 -3 36 70 0 c64 0 71 2 71 20 0 18 -7 20 -70 20 l-70 0 0 40 0 40 75 0
c68 0 75 2 75 20 0 19 -7 20 -95 20 l-95 0 0 -140z"/>
<path d="M2191 1413 c2 -5 28 -69 58 -141 70 -175 76 -175 148 -2 28 69 52
131 52 138 1 6 -10 12 -23 12 -21 0 -27 -11 -55 -87 -40 -112 -47 -124 -57
-98 -59 156 -72 180 -99 183 -15 2 -26 0 -24 -5z"/>
<path d="M2490 1280 c0 -133 1 -140 20 -140 17 0 20 7 20 44 l0 43 61 6 c79 7
109 33 109 91 -1 72 -37 96 -146 96 l-64 0 0 -140z m144 87 c20 -15 25 -62 8
-79 -5 -5 -31 -10 -58 -11 l-49 -2 -3 39 c-2 21 -1 44 2 52 7 18 76 19 100 1z"/>
<path d="M2754 1407 c-2 -7 -3 -69 -2 -138 l3 -124 93 -3 92 -3 0 26 c0 24 -2
25 -70 25 l-70 0 0 115 c0 109 -1 115 -20 115 -11 0 -23 -6 -26 -13z"/>
<path d="M2980 1320 c0 -111 10 -139 61 -166 36 -18 72 -18 109 1 52 27 60 49
60 162 0 96 -1 103 -20 103 -15 0 -20 -7 -21 -27 -2 -57 -9 -149 -14 -169 -7
-31 -56 -49 -87 -33 -35 18 -38 27 -38 132 0 97 0 97 -25 97 l-25 0 0 -100z"/>
<path d="M3298 1400 c-20 -16 -28 -30 -28 -54 0 -41 22 -62 91 -84 46 -14 54
-21 54 -42 0 -38 -42 -49 -94 -23 -40 20 -42 20 -51 2 -8 -15 -5 -22 15 -35
73 -47 177 -15 183 58 3 30 -2 39 -25 55 -15 11 -47 25 -70 31 -48 14 -57 24
-48 53 6 18 13 20 48 17 23 -3 49 -8 58 -12 11 -5 19 -1 23 10 10 27 -8 37
-71 42 -48 3 -63 0 -85 -18z"/>
</g>
</svg>
